<svg width="24" height="55" viewBox="0 0 24 55" fill="none" xmlns="http://www.w3.org/2000/svg">
<path d="M13.5 2C13.5 1.17157 12.8284 0.5 12 0.5C11.1716 0.5 10.5 1.17157 10.5 2L13.5 2ZM10.9393 54.0607C11.5251 54.6464 12.4749 54.6464 13.0607 54.0607L22.6066 44.5147C23.1924 43.9289 23.1924 42.9792 22.6066 42.3934C22.0208 41.8076 21.0711 41.8076 20.4853 42.3934L12 50.8787L3.51472 42.3934C2.92893 41.8076 1.97919 41.8076 1.3934 42.3934C0.807613 42.9792 0.807613 43.9289 1.3934 44.5147L10.9393 54.0607ZM10.5 2L10.5 53L13.5 53L13.5 2L10.5 2Z" fill="white"/>
</svg>
